<svg width="171" height="57" viewBox="0 0 171 57" fill="none" xmlns="http://www.w3.org/2000/svg">
<g clip-path="url(#clip0_534_1473)">
<path d="M13.1098 25.48H20.3898V25.53L19.9898 26.02H13.5098L13.1098 25.53V25.48ZM12.4798 24.84H20.9998V20.85H19.2898V22.72H17.5998V20.85H15.8798V22.72H14.1098V20.85H12.4798V24.84ZM19.8198 26.65V39.46C15.9098 37.94 12.3398 39.34 12.3398 39.34C12.6098 35.8 13.6998 26.65 13.6998 26.65H19.8298H19.8198ZM16.7298 28.47C15.8398 28.47 15.7798 29.83 15.7798 29.83V31.31H17.5298V29.85C17.5298 29.85 17.6098 28.48 16.7198 28.48L16.7298 28.47ZM46.4898 25.48H39.2098V25.53L39.6098 26.02H46.0898L46.4898 25.53V25.48ZM47.1198 20.86H45.4898V22.73H43.7198V20.86H41.9998V22.73H40.3098V20.86H38.5998V24.85H47.1198V20.86ZM45.9198 26.65C45.9198 26.65 47.3998 39.26 47.6698 42.8C47.6698 42.8 43.7298 43.1 39.7898 40.92V26.65H45.9198ZM42.0698 29.85V31.31H43.8198V29.83C43.8198 29.83 43.7598 28.47 42.8698 28.47C41.9798 28.47 42.0598 29.84 42.0598 29.84L42.0698 29.85ZM23.3798 18.45C30.0698 17.84 36.3098 18.45 36.3098 18.45V14.21H34.7198V16.06H32.9198V14.21H30.8498V16.06H28.9098V14.21H26.8698V16.06H25.0498V14.21H23.2998L23.3698 18.45H23.3798ZM24.0498 19.03L24.5498 19.54C24.5498 19.54 30.6598 19.13 35.0398 19.54L35.6198 19.03C35.6198 19.03 29.5798 18.26 24.0498 19.03ZM24.8598 20.24V27.65H27.5198V29.51H28.4298V27.66H31.1898V29.51H32.2898V27.66H34.8098V20.25C34.8098 20.25 29.3198 19.71 24.8698 20.25L24.8598 20.24ZM26.4298 13.14H33.4198L30.1698 8.65004V6.65004C30.1698 6.65004 31.7098 6.38004 32.6498 6.70004C33.5898 7.02004 35.3298 7.10004 36.4298 5.48004C36.4298 5.48004 34.2798 6.05004 33.2198 4.81004C32.1698 3.58004 30.1498 4.16004 30.1498 4.16004V3.50004L29.7698 3.04004L29.3598 3.52004V8.64004L26.4298 13.13V13.14ZM20.8298 28.24L20.9998 39.85C20.9998 39.85 24.0898 41.77 26.8098 41.46V35.54C26.8098 35.54 26.9798 32.95 29.8198 32.95C32.6598 32.95 32.9198 35.63 32.9198 35.63V39.84C32.9198 39.84 35.3898 39.24 38.6098 40.55V28.25H36.5798V30.13H34.9298V28.25H33.0098V30.07H30.5798V28.25H29.0498V30.07H26.6698V28.25H24.6798V30.11H23.0498V28.25H20.8298V28.24Z" fill="#3850A1"/>
<path d="M18.9598 44.0299C24.4298 46.8799 28.5798 45.0099 28.5798 45.0099C35.4198 42.2199 38.3398 44.7199 41.3998 45.4999C44.4598 46.2799 46.0498 45.8899 47.6598 45.4999C49.2698 45.1099 50.7298 43.7799 50.7298 43.7799C45.2298 44.9599 42.2598 43.4099 40.0298 42.4699C37.7898 41.5199 34.0298 40.3899 30.8998 41.6599C27.7698 42.9299 24.6398 43.3599 21.5898 41.6599C18.5398 39.9599 15.7798 39.9399 15.7798 39.9399C11.1198 39.6999 8.0498 43.3899 8.0498 43.3899C8.1098 43.3099 13.4998 41.1899 18.9598 44.0399V44.0299ZM11.0098 45.9499C11.0098 45.9499 15.7298 45.8499 18.8898 48.1499C22.0498 50.4499 28.2498 49.5799 28.8498 49.3099C29.4398 49.0399 34.2598 46.7599 37.3698 47.8199C40.4798 48.8899 43.7898 49.0799 45.2298 48.1699C45.2298 48.1699 42.9298 48.1899 39.6698 46.8899C36.4098 45.5799 33.9398 45.2299 30.8998 46.1699C27.8598 47.1099 26.8698 47.7799 23.9098 47.5299C20.9498 47.2799 18.9398 46.0199 18.9398 46.0199C18.9398 46.0199 15.1398 43.8499 11.0098 45.9499ZM15.6598 49.9999C15.6598 49.9999 20.1298 53.8999 25.8898 53.6299C25.8898 53.6299 29.3698 53.5299 31.4698 52.3899C33.5698 51.2499 35.6898 51.5299 36.8098 51.5999C37.9198 51.6699 39.6298 51.7499 41.1798 51.2599C41.1798 51.2599 39.5498 51.2799 37.3098 50.4199C35.0698 49.5599 32.2498 49.8199 29.9798 50.8799C27.7098 51.9299 24.4898 51.9499 23.1698 51.7799C21.8498 51.6099 17.0998 50.0499 15.6598 49.9999Z" fill="#1DADC9"/>
<path d="M59.71 25.2699V22.6299H62.4V25.2699H59.71ZM59.71 40.4099V27.5299H62.38V40.4099H59.71Z" fill="#3850A1"/>
<path d="M86.11 28.1303C85.84 27.3203 85.36 26.5503 84.66 25.8303C83.96 25.1103 82.87 24.7503 81.4 24.7503C79.77 24.7503 78.49 25.3703 77.57 26.6103C76.64 27.8503 76.17 29.5003 76.17 31.5803C76.17 33.6603 76.63 35.3003 77.57 36.5703C78.5 37.8403 79.78 38.4803 81.4 38.4803C82.83 38.4803 83.92 38.0703 84.66 37.2603C85.41 36.4503 85.91 35.5803 86.16 34.6403H89.02C88.7 36.0503 87.94 37.4603 86.72 38.8503C85.5 40.2503 83.73 40.9403 81.4 40.9403C78.88 40.9403 76.89 40.0703 75.43 38.3403C73.98 36.6103 73.25 34.3503 73.25 31.5803C73.25 28.8103 73.98 26.5703 75.43 24.8503C76.88 23.1403 78.87 22.2803 81.4 22.2803C83.77 22.2803 85.58 22.9503 86.81 24.3003C88.04 25.6503 88.79 26.9203 89.05 28.1303H86.11Z" fill="#3850A1"/>
<path d="M103 40.4604L101.28 36.1804H93.0596L91.3696 40.4604H88.5996L95.5996 22.6504H98.7096L105.76 40.4604H103ZM97.1696 25.7204L94.0796 33.6404H100.28L97.1696 25.7204Z" fill="#3850A1"/>
<path d="M119.35 33.0901C119.91 33.9701 120.12 34.9401 119.98 36.0001C119.81 37.3601 119.16 38.5601 118.01 39.6101C116.87 40.6601 115.23 41.1801 113.1 41.1801C110.74 41.1801 108.97 40.4501 107.79 38.9901C106.61 37.5301 106.01 36.0201 106 34.4601H108.74C108.77 35.7401 109.2 36.7601 110.03 37.5201C110.86 38.2801 111.88 38.6701 113.09 38.6701C114.3 38.6701 115.24 38.4001 115.85 37.8701C116.46 37.3401 116.85 36.6901 117.02 35.9301C117.17 35.3201 117.08 34.8001 116.75 34.3701C116.42 33.9501 115.94 33.5901 115.3 33.2901C114.54 32.9101 113.71 32.6801 112.82 32.6201C111.93 32.5501 111.04 32.3401 110.14 31.9701C108.94 31.4901 108.03 30.8701 107.4 30.1301C106.77 29.3801 106.49 28.4001 106.55 27.1901C106.62 26.0101 107.17 24.8701 108.22 23.7501C109.27 22.6301 110.84 22.0801 112.95 22.0801C115.41 22.0801 117.11 22.8101 118.04 24.2701C118.98 25.7301 119.43 26.9801 119.4 28.0101H116.68C116.66 27.0801 116.36 26.2701 115.76 25.5901C115.16 24.9101 114.22 24.5701 112.94 24.5701C111.76 24.5701 110.9 24.8601 110.35 25.4301C109.8 26.0001 109.52 26.6001 109.5 27.2401C109.48 27.9501 109.7 28.4901 110.16 28.8501C110.62 29.2101 111.11 29.4801 111.64 29.6601C112.29 29.8801 113.11 30.0601 114.09 30.2101C115.08 30.3601 116.05 30.6601 116.99 31.1101C117.97 31.5601 118.74 32.2201 119.29 33.1001L119.35 33.0901Z" fill="#3850A1"/>
<path d="M128.379 25.1697V40.4597L125.639 40.4097L125.609 25.1697H119.979V22.6797H134.079V25.1697H128.379Z" fill="#3850A1"/>
<path d="M135.85 40.4097V22.6797H138.57V37.9497H147.76V40.4197H135.85V40.4097Z" fill="#3850A1"/>
<path d="M149.4 40.4097V22.6797H161.8L161.83 25.1697H152.12V30.0497L161.39 30.0797V32.5197H152.12V37.9497H162.03V40.4197H149.4V40.4097Z" fill="#3850A1"/>
<path d="M70.1603 30.4297H65.5303V32.8297H70.1603V30.4297Z" fill="#3850A1"/>
</g>
<defs>
<clipPath id="clip0_534_1473">
<rect width="170.08" height="56.69" fill="white"/>
</clipPath>
</defs>
</svg>
